/* XPM */
static char *bcc7cbe405cb45d3f2f67dbd055e1677TFOppMHoKBsTKU2a[] = {
/* columns rows colors chars-per-pixel */
"64 64 252 2 ",
"   c #47704C",
".  c #9F4F3D",
"X  c #F9C31B",
"o  c #4D1E2F",
"O  c #AB514C",
"+  c #87413B",
"@  c #884040",
"#  c #883F40",
"$  c #B16340",
"%  c #9B4E41",
"&  c #884140",
"*  c #F8BF00",
"=  c #602834",
"-  c #AB6140",
";  c #F8D403",
":  c #874040",
">  c #F9C900",
",  c #884040",
"<  c #883F40",
"1  c #884040",
"2  c #F8C312",
"3  c #F8983F",
"4  c #F9E107",
"5  c #A55B40",
"6  c #F8CB00",
"7  c #5D2734",
"8  c #F8C408",
"9  c #B66440",
"0  c #E68040",
"q  c #873F40",
"w  c #9E5740",
"e  c #F8DB0E",
"r  c #873F40",
"t  c #F8D500",
"y  c #D8713F",
"u  c #74353A",
"i  c #894140",
"p  c #DC753F",
"a  c #883F40",
"s  c #AB623F",
"d  c #D6713F",
"f  c #F8CE00",
"g  c #8B4240",
"h  c #F8F814",
"j  c #934B40",
"k  c #AB6040",
"l  c #873F40",
"z  c None",
"x  c #F8F404",
"c  c #F8F85D",
"v  c #F8F803",
"b  c #F8CB00",
"n  c #F8CD00",
"m  c #582532",
"M  c #522131",
"N  c #4C1E2F",
"B  c #522131",
"V  c #6E3139",
"C  c #F89B3C",
"Z  c #6E3139",
"A  c #F79D34",
"S  c #D76F40",
"D  c #C96C3E",
"F  c #F8C700",
"G  c #F8C900",
"H  c #884040",
"J  c #A95D40",
"K  c #BE6841",
"L  c #974D40",
"P  c #F8F826",
"I  c #F8DC29",
"U  c #A96040",
"Y  c #F8B619",
"T  c #F8DA00",
"R  c #A45C40",
"E  c #F8F879",
"W  c #F8CA00",
"Q  c #F8F753",
"!  c #AD6140",
"~  c #F8DE00",
"^  c #F8D405",
"/  c #F8EB3C",
"(  c #F8EE00",
")  c #F8C000",
"_  c #F8DE04",
"`  c #F8ED15",
"'  c #884040",
"]  c #F8D007",
"[  c #944B40",
"{  c #DF7841",
"}  c #75353B",
"|  c #CE6F40",
" . c #F8B222",
".. c #D46E40",
"X. c #D76F40",
"o. c #A25940",
"O. c #F8AC27",
"+. c #CE7140",
"@. c #E28731",
"#. c #F8CA00",
"$. c #DC7C3A",
"%. c #F69540",
"&. c #9A4D40",
"*. c #884040",
"=. c #F6C215",
"-. c #F8E600",
";. c #A96040",
":. c #BB6641",
">. c #D87040",
",. c #F8DF30",
"<. c #E3813C",
"1. c #F8D200",
"2. c #954C40",
"3. c #9D5540",
"4. c #F8E505",
"5. c #A85F40",
"6. c #F8DB3B",
"7. c #F8D322",
"8. c #F8F7AD",
"9. c #F8F73A",
"0. c #A86040",
"q. c #884040",
"w. c #F8F55D",
"e. c #F8CD10",
"r. c #F8D92C",
"t. c #F8EE00",
"y. c #F8F825",
"u. c #F8F8FA",
"i. c #BB6540",
"p. c #F8F89A",
"a. c #853E3F",
"s. c #8F4840",
"d. c #F8FA00",
"f. c #F9ED04",
"g. c #F9993F",
"h. c #DD763E",
"j. c #F8D507",
"k. c #D97040",
"l. c #F8F8F0",
"z. c #EC8940",
"x. c #CC6C40",
"c. c #F9F100",
"v. c #F3BD0F",
"b. c #F9E700",
"n. c #9C5340",
"m. c #F8F9E9",
"M. c #B66240",
"N. c #984B40",
"B. c #D56F40",
"V. c #F8F63A",
"C. c #DB7440",
"Z. c #602935",
"A. c #8C463F",
"S. c #F8CE04",
"D. c #F8F702",
"F. c #F7C60B",
"G. c #E3833A",
"H. c #F8F894",
"J. c #F8F9CD",
"K. c #F8DB08",
"L. c #A2573F",
"P. c #CF6E3E",
"I. c #F8F9D3",
"U. c #F7A32F",
"Y. c #C86B40",
"T. c #F8F947",
"R. c #E07940",
"E. c #F8F937",
"W. c #F8F767",
"Q. c #F8C116",
"!. c #884040",
"~. c #F8F9E2",
"^. c #F9F973",
"/. c #D28031",
"(. c #F8F9B0",
"). c #F8AC25",
"_. c #F8F900",
"`. c #F8F400",
"'. c #F8F300",
"]. c #F8BD0D",
"[. c #EDA71A",
"{. c #994E40",
"}. c #F8F887",
"|. c #AF633D",
" X c #F8F64C",
".X c #F2CF11",
"XX c #F8F8F5",
"oX c #F8F9DB",
"OX c #F8DB3D",
"+X c #ED9135",
"@X c #F8F8BC",
"#X c #C06640",
"$X c #AC593D",
"%X c #E38739",
"&X c #F8F855",
"*X c #F9BA1B",
"=X c #EE9E25",
"-X c #F09830",
";X c #D29227",
":X c #B68324",
">X c #F8F35E",
",X c #F8F98E",
"<X c #F8D925",
"1X c #F8F7A9",
"2X c #F8EB36",
"3X c #F9E661",
"4X c #F9F12F",
"5X c #F8F189",
"6X c #F8F97E",
"7X c #F8F914",
"8X c #F4933F",
"9X c #F18E40",
"0X c #F29738",
"qX c #F8E300",
"wX c #F6BB0F",
"eX c #DE7C3D",
"rX c #F8B51B",
"tX c #F5AF1D",
"yX c #F8D51C",
"uX c #F7A728",
"iX c #F7C81A",
"pX c #D1733E",
"aX c #F8EF44",
"sX c #934A40",
"dX c #EEB613",
"fX c #C1693D",
"gX c #BA5F3F",
"hX c #F8F8B5",
"jX c #E4AA1F",
"kX c #F4BF38",
"lX c #F8F8A3",
"zX c #F2CE1A",
"xX c #EA8B38",
"cX c #F8EFB9",
"vX c #F99E39",
"bX c #F8C307",
"nX c #E9AE16",
"mX c #F2B220",
"MX c #DFA11E",
"NX c #BF7631",
"BX c #CB852B",
"VX c #F8DF49",
"CX c #DA813A",
"ZX c #F9ED6D",
"AX c #F8E52A",
"SX c #F8C744",
"DX c #F8F0C4",
"FX c #D37938",
"GX c #F8DD59",
"HX c #B36C30",
"JX c #F7E722",
"KX c #F5D03B",
/* pixels */
"                                                                                                                                ",
"                                                                                                                                ",
"                                                                                                                                ",
"                                                                                                                                ",
"                                                                                                                                ",
"                                                                                                                                ",
"                                                                                                                                ",
"                                                                                                                                ",
"                                                                                                                                ",
"                                                                                                                                ",
"                                              * 8 h h 6.OXaXT.T.T.T.aXyXT h f 8 *                                               ",
"                                          * #.-.,.Q E 8.I.l.l.l.l.l.oXW.z P 4 ; W #.*                                           ",
"                                          x I >XhXXXXXXXu.u.u.m.~.~.J.p.H.H.&Xz K.; G                                           ",
"                                    X f 4.c @Xl.XXu.u.u.~.J.J.1Xp.p.p.p.p.p.H.}. XV.e b 8                                       ",
"                                  X x / 5X~.u.u.u.~.@XlX&XV.V.V.V.V.V.V.^.p.p.p.p.H. Xb.e G X                                   ",
"                                  v E J.l.u.u.XX1XT.2X<XdX;X:X:X:X:X;XdX<X2X^.p.p.p.,XE.c.~ F                                   ",
"                                v c oXu.u.m.(.W.2Xv.BXHX$XN.!.a.a.!.N.$XNX;XkXaX}.H.p.}.E.c.e f                                 ",
"                            X x c I.u.u.m.>XJXv.BXL.A.a.r # # # # # # r s.N.|.;X<Xz 6Xp.,XT.c.1.8 O                             ",
"                          X _ 9.(.u.u.l.W.Q./.|.s.r , , H < < < < < < 3.R R J |./.v.4X}.p.W.D.K.O.C X                           ",
"                          2 e 1Xl.u.m.1XKX/.N.!., 1 & % .             . % $ ! U |.FXF.V.,XH.E.'.S.A 2                           ",
"                        X v w.m.u.oXW.zX/.N.r ' 5 w                         w 5 0.|./.F.4X^.E.D.K. .C X                         ",
"                      ) b ` hXu.l.6XK./.N.!.' %                                 5 k M.%XF.f._._.D.S.A { O                       ",
"                      2 ~  Xm.u.J.4XMX{.!.1 &                                     $ ! pX-XF.c._.D.S.U.y .                       ",
"                    X ^ f.6Xl.l.,Xj.NXA.q.&                                         $ 9 0 U.K._.D.qXwXp S +                     ",
"                    * n f.(.u.@X4XjX{.!.q                                             >.C.z.Q.'._.`.v.h.y .                     ",
"                    * n f.I.m.6Xj.fX!.1 &                                             $ d 0 rXb._.'.v.h.d .                     ",
"                    2 t.7XJ.~.^.zXgX!.l                                                 D 0 vXF.c.`.v.h.y $                     ",
"                    W f.7XJ.~.ZXjXL.# @                                                 S 0 g.].f.`.v.h.x.s                     ",
"                    6 f.7XI.I.<XCXn.1 .                                                 . %.g.].qXc.v.h.x.-                     ",
"                    6 f.7XhX(.zXP.n.:                                                     3 g.wXS.b.v.h.x.-                     ",
"                    6 f._.^.^..XP.n.:                                                     3 U.S.S.b.mXC.x.-                     ",
"                    Y j.'.E.E..XP.n.:                                                     3 rXf.j.S.0Xk.x.-                     ",
"                    3 ].f._.d..XP.n.:                                                     3 iX`.j.].G.k.x.-                     ",
"                    <.dXf._.d..XP.n.:                                                     Y VXW.yXv.eXk.Y.-                     ",
"                    D nXj.c.d.j.CXn.1 .                                                 * 6 3XH.yXuXh.P.J [                     ",
"                    s MXF.f.d.f.jXL.# @                                               O b ; H.>XS.-XC.x.L.:                     ",
"                    $ $.wXb.D.d..Xi.!.l                                                 6 OXI.GX].G.B.fXo.&                     ",
"                    . d [.S.`.d.K.%Xn.1 &                                             2 ] 3XoXOX=XR.x.L.i .                     ",
"                    . k pXtXb._.c.nXfX{.q                                             _ AX(.ZXQ.G.k.x.n.i .                     ",
"                    + s :.G.F.b.d.iXR.gX&.&                                         t y.lXJ.OX-XC.B.M.g H +                     ",
"                      $ U pXtXj._.K.-XR.#Xk 5                                     t T  Xm.5XQ.G.k.P.{.i .                       ",
"                      w ;.K %XrXqXc.*X9XR.Y.9 %                                 t n AX@XDXSX+XC.k.i.g l O                       ",
"                        + 5.K G.).4 j.uX8Xz.+.9 5 w                         ) t ] 2X@XcXkX+XC.B.i.L @ +                         ",
"                          % 2.M.eX).S.bX).g.9XC.| 9 ..X.%             2 > ( r./ 5XI.cXkXxXC.B.M.sX*.%                           ",
"                            @ L M.G.rXF.bXuXg.8Xz.C.p p @.> > > > > ( ^ e.` lXm.oXDXSXxXk.k.i.sXg @                             ",
"                            + q j M.%X0XtX*XU.g.g.8X0XU.=.; ; ; 7.I P Q 5X}.(.cXVXkX+XC.B.#X{., a +                             ",
"                                @ j M.Y.eX+X).vXg.g.U.Q.4 '.D.D. X&X&X>X3X3XOXmXxXh.k.B.M.N., @                                 ",
"                                  a j n.M.x.G.z.z.9Xg.g.).iX4 b.b.b.4 Q.[.=X+Xh.k.B.Y.M.sX, a                                   ",
"                                    q } A.L.#XY.B.R.z.z.z.z.=X[.[.[.=Xz.R.k.k.B.Y.#XL.A.u @                                     ",
"                                    + o Z u s.{.$Xi.i.i.i.i.i.i.i.i.i.i.i.i.i.$X{.s.u Z o                                       ",
"                                      O   B 7 = a.A.A.s.s.s.s.s.s.s.s.s.s.A.A.a.= 7 B                                           ",
"                                          + N M 7 = = V a.a.a.a.a.a.a.a.V = = 7 M N +                                           ",
"                                              . o o o m Z.Z.Z.Z.Z.Z.Z.Z.m o o o .                                               ",
"                                                                                                                                ",
"                                                                                                                                ",
"                                                                                                                                ",
"                                                                                                                                ",
"                                                                                                                                ",
"                                                                                                                                ",
"                                                                                                                                ",
"                                                                                                                                ",
"                                                                                                                                ",
"                                                                                                                                ",
"                                                                                                                                "
};
