/* XPM */
static char *a68899d6e3844eacb13c479ef2b441d96d4ml3VtaKZ1uFxI[] = {
/* columns rows colors chars-per-pixel */
"64 64 94 2 ",
"   c #4D2D1E",
".  c #54321F",
"X  c #5B351E",
"o  c #5E391F",
"O  c #623A1F",
"+  c #4E2E20",
"@  c #553221",
"#  c #5C3622",
"$  c #5E3923",
"%  c #603723",
"&  c #633C25",
"*  c #693E26",
"=  c #653D29",
"-  c #693F29",
";  c #6B4126",
":  c #67402C",
">  c #6C422C",
",  c #72452D",
"<  c #75492E",
"1  c #794A2E",
"2  c #6F4430",
"3  c #724631",
"4  c #764932",
"5  c #7B4D34",
"6  c #7D4E38",
"7  c #7E5135",
"8  c #7F5139",
"9  c #814F35",
"0  c #804F38",
"q  c #825236",
"w  c #895637",
"e  c #8A5936",
"r  c #84543B",
"t  c #89563C",
"y  c #87583C",
"u  c #8B5A3D",
"i  c #915D3E",
"p  c #92603F",
"a  c #8D5C41",
"s  c #915E41",
"d  c #8E6141",
"f  c #956243",
"g  c #996546",
"h  c #966846",
"j  c #9C6947",
"k  c #966749",
"l  c #9B6648",
"z  c #9D6A49",
"x  c #A16B47",
"c  c #A26D4A",
"v  c #A26D4B",
"b  c #A66F48",
"n  c #A26E4C",
"m  c #A3704B",
"M  c #A4704D",
"N  c #A6714D",
"B  c #A4714F",
"V  c #A8734E",
"C  c #A9744F",
"Z  c #AA744E",
"A  c #AA754F",
"S  c #A47350",
"D  c #A67350",
"F  c #A97550",
"G  c #AA7651",
"H  c #AB7651",
"J  c #AC7550",
"K  c #A77855",
"L  c #AC7851",
"P  c #AD7852",
"I  c #AF7A54",
"U  c #AF7B55",
"Y  c #AD7858",
"T  c #B07A53",
"R  c #B07B53",
"E  c #B17B54",
"W  c #B17C54",
"Q  c #B27C57",
"!  c #B57D56",
"~  c #B47F57",
"^  c #B47F58",
"/  c #B38057",
"(  c #B48057",
")  c #B48058",
"_  c #B78159",
"`  c #B3835F",
"'  c #B8845B",
"]  c #B9845D",
"[  c #BD885E",
"{  c #BD8960",
"}  c #C08C62",
"|  c #C28D62",
" . c #C08E66",
".. c #C79164",
/* pixels */
"j c A L F n m z u 1 > - > 3 > ; > > ; > = = = & $ # = r r 5 a u u u s g g a K ..) ) ^ ) ( F c c c l B F E W W z u u u r 4 > & ; ",
"g j B L A B B B j t 5 > & & ; ; ; > > , , ; & $ & # $ 4 6 4 f s r q f z z u ` { ~ ^ ^ ~ ~ W L n g f l B I W E l u u t u t r u c ",
"g r u j m B V B B g u 5 - $ > 5 q r t a t q < & ; = $ & > 3 q u i g g z f f  .' W ( ( ~ W T ~ ~ F g g L E W E c f a r f a s F T ",
"B g 9 < < q a f g g f u 5 - 4 u f f f z s u u 6 > > - $ # & > 1 u h z z f D } W / ~ ~ ~ W E W T W F A W W W T F B s r a f c I L ",
"D z t 5 , f u s f f f a r , > 4 5 r r t t t t 5 > 2 > - $ , r q 5 u z j t n ] / ) ~ W L W W T F W W W W W W L F c s r 1 i T W I ",
"B f y r c I B n c z f u r , 5 > > 3 5 r r r 5 * - > > - = 8 t a u r a a q I ^ W E ~ ~ W W T E W W W ~ W W T F V B s u , u W E I ",
"B g a u F n c c z l s t 0 5 6 , - > > 2 3 > & % = = = = & 5 t t r r r r K ) W W W W W W W W T W W W E W W L A A F g a 5 a W E E ",
"n g t r z B z u r r r t 6 5 r r 4 & & & & = & & = ; ; ; = 4 r r r r a T ' W W W W W W F V F E W W W E T E T F F F g u 5 f ~ T F ",
"z a t 5 5 u u c A g r r 5 5 r r r > $ & & - > & > 3 , > - > 6 r r f W W F L W W W W F V V A V B A E E F F B F F B f t 4 f ~ T l ",
"u 0 5 , , q s f j g u r 3 4 r r 7 ; # & & - > = > 3 3 , - > 3 3 d / W F z B F L L F F W W E L A n F E T B V B n z f r , f E g u ",
", , , f s t r r u s a 6 > 2 3 3 < 5 q > & > = # = > > = & 3 3 - B E L L B l B z l z B T L E E L x a a a 7 a z z g f t , r a 4 , ",
"> 1 c B f f r u u 5 < > - > 3 7 u z n a = & #   @ @ @ & 7 6 5 - z E L F B n I B s u g A L L E n u 3 , , q , f z g a q q a u d 5 ",
"p m c f f c s u t q 1 > ; q f z z z z j , $ # # @ . > j B r 6 > f F L F B z E L n f s g V F B f r > > f L ; 5 u 5 5 f T A I K f ",
"F B g f F c n g u u r , 5 z n z z z z j r = & $ # $ f V g u t 5 s c F F B z I L V f c j z B l q , ; 7 W L i , ; ; 5 j b L L F F ",
"z B n c B a z z a u t , , u s f z z z f 6 > > & & & u c j g r , f z B B z l F B f u n n z a q q D z n F L L j 1 < u m c L B z B ",
"j l B B s r s f r r 4 5 q 6 5 6 r u t 5 , > - - = & 6 f f f q 5 q z z z j f f a y j A c z a 6 c } B j z E T L f 5 j A j B F c B ",
"A j z z u r u r 7 4 < f s i w p u < > & & > 4 4 & & , 7 < 7 a 6 > z F A F B j s f n B z f r r ] ~ z f f n n B f 7 f A j B A F F ",
"z f g g a r 7 7 y f g g u u A A c q , u y 6 r r ; & & 2 > p r 2 5 j f g z z c V F c j f r 5 B [ L g a r , r r 6 > 5 i s g n B D ",
"r r z f t r f z z z z a u A F z g f f ) F g r 9 5 , - & > 6 > u L A B B B F F c E F c u 3 5 ' ~ L n f t , 3 3 > - ; > 4 5 r f f ",
"r r l f r f B z g z z u B F B B j g B c z z u r t r 4 * & > 5 L L A F F F L L c B c a r 6 z ) L F F g j f 6 3 > = - = & & > 4 5 ",
", 5 6 r r z z z g z z u V F B B g f B B z g u r r r 5 , 6 z B B n F F F F F A j u r r r A ~ L F F B j c z f 6 - - ; & % $ & 4 4 ",
"u u r q 5 u j z g f f q u B B B u z B z z f r r r 6 5 q j B z c z l z z z z z f u 6 7 B W L L L F z z z z z f 5 * & & > > > r r ",
"s f g g u 6 a l g f a z z z z g B B B f f u r r 5 f L A F B z n c g f z n c c z g q g W K A F F B f f g z j g r , & , u t 5 5 r ",
"s g z j f r t g j g u n B F A F B B c f s t 5 3 y B W F A B z F F V c f f j g f s r I ) F V c z f u F B c z f r 5 u m g u r , r ",
"r c z f f u r r f a u B A B A D B B c g a r < r F z F F A B z D B c g f z z z z f q n W F A j a y F F z z z s r r c n f r r > 3 ",
", f g g g s t r u u f F F V F D B B c f u r , u D f F A F n a f z g a s c c c z s q z F A V j u f A c c z g t 0 t z g a r r 5 = ",
"% 5 f g g f a r r 7 z B F V B B B B n f t r , , k a n B D z g n n c f r f z z z t 5 z V V c a 6 6 f l f u r q , r f u t r r 3 = ",
"& , q u f f a r 6 , u f z B m c c n n g s r 4 % q f z z f g B n z f u 8 q f g s r , f V B f 5 , 5 r r r 5 5 5 q q a t r r 5 3 > ",
"r > ; < r t r 6 > & 4 f z z j c c c z f f r 5 & ; z m c g c B n f q 3 3 3 5 r 5 4 > q u u q r f W u 3 4 , w A j r r 5 4 5 5 s z ",
"q , & ; 3 5 3 = o $ % > f L V f l z z u 8 r q > % q T A c c c g r , 5 q = > > u g c c i q f I ~ T x q > % q n s 5 3 > y , u V z ",
"4 > % $ & = & & 5 < > > ; u n c f i j u 3 r r 6 = % a B B c c f , $ 4 q > t f g B B B j z W ^ W T T L j q , > = > 3 & 3 = q s r ",
"r q 5 < ; & q f c f r r ; & f B n f u r , r r r - # < n B B z 7 o o < r f z c f c n n f B B W T T A E W F g 1 * $ $ # . . > , r ",
"n B B j q 5 c l f u q 8 ; , g B n c f 5 , , 5 4 ; & ; z n n f > ; q m L n j j g V c f s ) n T L W T W E L L c u , * , q q d f F ",
"V B B f 6 q B c j r 4 , 4 c B n c c n n c u 5 , > - & u f u 7 > , s B c f A c n n j q j F z F A F W T L L F A n f 5 < ' W W I F ",
"B n c s 6 4 s s u 4 2 > u B n c c z z g l z r ; = & # & = 4 j f # & 7 q u F F c z u f } B z L F n F T T A A z f u u B [ L F K K ",
"n B z r 3 * > 4 6 u u 7 5 f n f a u f f f u 4 f f f u u d A n 8 @ & r c F V B z u r K [ n z B n c f n A A z s a r n [ F F F L L ",
"a f q 5 r 5 - , t f a a r , r 7 r u f z u 4 j ~ ~ ( E T T m u 4 @ > j F F n z u f V n I B f f g g f u f f a u t f ] E F V V B c ",
"u q u g c u 4 > 5 r r 8 q 7 u r 6 6 6 t 6 7 W F F F B V F B u , # > c A V g u p L V z F B u 6 5 r t u u u t u f z W I B c c z f ",
"F f u g c s r > ; , , , > 6 s i 6 > , , > 5 m V V V B B A B f 4 # & f z j f j L F c s n f r q h 5 c I B z r q z c ) A A T E L E ",
"F V B B c u r > % & = ; = > 3 3 , > = 6 q - r c n V n n B z s r & % 6 f f z L F F c s a 8 z ) ) u B n j s 6 ; q g W F F F T T T ",
"n V F c s r 5 ; $ $ & & = y r 5 4 3 - 5 5 $ , u j n n n c f a r - # & r f g g z F c u r r ] ) W f j g s t 2 O , a B m B B B K L ",
"E B c g t 5 > = $ & - > f z ) E F n t * O $ * r u g z n j a r 5 - & % 6 i a r j F B u z ] ^ W W u 9 u r 4 = > r a f f V F B n z ",
"F z z s 6 > ; 3 > > - , 5 g ^ A g r r 1 > > = > 6 r a a r 6 , ; - & & u j z f B z a f { ) W W ) g & - - # & f ) ~ L c j V F F F ",
"n f a 6 3 > q c u 5 7 k a f F n t 8 5 > & = ; - > > ; > > ; * , , & - r g c c n a f ] ' / ( T W A ; X 5 d z F f B F J g u g g l ",
"5 5 4 & - u B s r z W W B f f u 6 6 2 = & = > > 5 s u u u r , 5 5 > & 5 u f z s a ) { W W W L L W f & u W ' B g i B F g 3 4 6 6 ",
"= & # > i z u 6 z } E n c B j i 6 > = & & = - > p c c z z z s 6 , > - 3 u a r g W ) ) W T T F E E L p r f l c n g f f 6 & & ; ; ",
"8 u p B g r 5 q F F F V B n c f r 3 & % & & > u g f j z z j g r 4 , & 4 f u f W F F ) F B F F E I I L c u 9 s n n g t > # & * - ",
"F B c g r 6 4 f L A V n n B c u r 3 # % 5 4 < f g r r u r u a 4 > & $ 7 u f [ L g B F n L T W W W F W E B g f f g s q & & , f m ",
"g a r r z s u B F A V x g n g r 6 - # 5 D f t 5 = 3 , 7 f 6 4 3 ; X & f u A ( F n c c B E W W W L E W W E E L j s u u 6 , , j V ",
"f r s V c a u A V V V j r f s r 5 = $ 7 i i f 3 # & & u V q & = $ @ % 6 f L L A c F ] z z W W W E ~ ~ W W W L B j f a u r 5 t l ",
"t f V g u r j E n j l u 5 r 8 r q p B u , r 6 > $ = > u u 4 # ; 4 7 q u f n n E ^ E L z s L W W ~ ~ ~ L F B l f f a u s z q 4 r ",
"u c g s u f n f u 4 , > - , , 5 e i q > * > > & @ # > 7 r > 4 c f f I W W F z n g z A A l c F L L L A L I c c z j a t B F t 3 , ",
"f g f f s u 5 3 > 5 u u 7 5 t u u 5 , r 7 > & #   @ = 3 3 > u z z f z c c f r r r u B [ ^ c a f f f n L F n n n g s j L n s 4 , ",
"7 f s t q 4 3 ; u L E n j a t a a u a ] ' n u < * @ # = ; > f z z a a f a r u F W B F ^ F B 6 5 6 u z n n n z c u 6 z F n s 5 & ",
"> r t 0 3 > > & g F n c z f r r a a n [ A B j u q > $ @ . 5 z g a r u t 5 f I ] E B c W A c 5 # $ > r z c z f a 6 3 f n f r 5 * ",
"> > > > - = $ < A B j c z g u q f s l n g g g u r 3 & @   5 s s r 5 8 4 q ' n F F g g F n n f , > , 3 r s a a 4 2 3 f l g j u 5 ",
"4 > - & = & # q A c j z z f s s f s g c f t i u r 3 - #   & 4 5 7 r 4 > B E x V B f s l B F f r F B 1 , 3 4 4 > 1 t z F n c g r ",
"3 > > > > > = q n c n n z g s s a f f f a r t r 5 2 > - +   # = 3 8 4 6 s f f g f u r r z u u I ] E f 1 > - - ; u f s f s s t 6 ",
"& = > 2 > > - q V x c c z l f a a f a u u t r 8 3 > - = @ . & 5 * > u g s r 0 t r r 6 > 5 D I ) W W E n u 1 * % 4 6 5 6 r r 5 ; ",
"> & & - > > - 7 l c c j j j s s n g a t r r r 6 > - - & # X q u 1 m ..} W g q 5 r 6 4 a ) Y D ~ W W W W L c t ; % & & 3 z c s u ",
"5 < 6 3 - - - ; 6 s g i s s u g B s t r r r r r , = = $ # ; u t n ~ ~ W F f r < > 4 B ] ' L c T K W ~ ~ W W L f 5 , ; g W z g f ",
"4 > 3 3 u q r 5 ; > > < t s g f g a r r r r r 6 > = = # & u c f j J F B B s r 5 7 K { ) ~ ~ A n c F ) W W W W F f u 5 f z g g f ",
"= & > h I z f u 5 > & > 6 r u t u r r r r r r , * = $ $ u s u u c F f r f a u u I F ) ^ ~ ~ T A c F ~ W W W T B a u r r r f s t ",
"5 j ( ) F B n f r , = & 3 3 4 6 8 r r r q r r * = & # 5 B u q f B z 8 8 a a u ) B g ^ ^ ~ ) ~ ( L F F L F E E z u a r 4 : > 5 3 "
};
