/* XPM */
static char *b5704069369e4c9bc755740fe2706ffcaKusRxSpYCkPu9qa[] = {
/* columns rows colors chars-per-pixel */
"64 64 256 2 ",
"   c #47704C",
".  c #162439",
"X  c #324155",
"o  c #6A6E7E",
"O  c #354354",
"+  c #142239",
"@  c #838790",
"#  c #494D5A",
"$  c None",
"%  c #2E3444",
"&  c #74767E",
"*  c #4A4E57",
"=  c #384252",
"-  c #1C2A44",
";  c #1A2943",
":  c #3E4753",
">  c #5A5A63",
",  c #1E364A",
"<  c #343C4F",
"1  c #2B364C",
"2  c #0E1A35",
"3  c #202C43",
"4  c #175163",
"5  c #11223B",
"6  c #333D50",
"7  c #18253E",
"8  c #142034",
"9  c #1E2840",
"0  c #7D7E84",
"q  c #111E36",
"w  c #1C263E",
"e  c #686D75",
"r  c #369FA4",
"t  c #353B4E",
"y  c #317981",
"u  c #2B4556",
"i  c #131F37",
"p  c #293C4F",
"a  c #384457",
"s  c #223846",
"d  c #1D2C47",
"f  c #5A5E66",
"g  c #4D5060",
"h  c #3A404C",
"j  c #1A3249",
"k  c #DAD1C7",
"l  c #2A6171",
"z  c #50686F",
"x  c #345963",
"c  c #18263A",
"v  c #39A3A8",
"b  c #0B213F",
"n  c #244657",
"m  c #22606F",
"M  c #233049",
"N  c #2C3B4E",
"B  c #192A45",
"V  c #364C5B",
"C  c #334558",
"Z  c #335B6A",
"A  c #24485B",
"S  c #358F9A",
"D  c #327883",
"F  c #47488B",
"G  c #4FE8E4",
"H  c #7D7BBB",
"J  c #071930",
"K  c #293D4F",
"L  c #172A3D",
"P  c #0B2140",
"I  c #47468C",
"U  c #BCBBBB",
"Y  c #B3B2B1",
"T  c #05172E",
"R  c #C2C0C1",
"E  c #1E3347",
"W  c #BAB9B7",
"Q  c #B8B7B5",
"!  c #C3C2C2",
"~  c #4A4A8E",
"^  c #526B70",
"/  c #3F4658",
"(  c #263C4D",
")  c #C4C2C3",
"_  c #7E7ABB",
"`  c #4FEAE5",
"'  c #726FB0",
"]  c #C7C4C5",
"[  c #051936",
"{  c #3E545B",
"}  c #434586",
"|  c #071E3F",
" . c #475374",
".. c #425A60",
"X. c #9494A0",
"o. c #6261A2",
"O. c #4DA9AC",
"+. c #142243",
"@. c #092643",
"#. c #46478A",
"$. c #50686E",
"%. c #48488D",
"&. c #455C62",
"*. c #545B86",
"=. c #2FA5A1",
"-. c #47458A",
";. c #0D233F",
":. c #40585E",
">. c #50EDE8",
",. c #7D7FBA",
"<. c #7A79B9",
"1. c #4E666C",
"2. c #3C5463",
"3. c #50E3E2",
"4. c #0F2A45",
"5. c #53AFB1",
"6. c #172B3E",
"7. c #21394C",
"8. c #12334D",
"9. c #4AD8D8",
"0. c #525394",
"q. c #5F5FA0",
"w. c #7876B6",
"e. c #4D4D8F",
"r. c #17475D",
"t. c #3FBBBC",
"y. c #3B8189",
"u. c #4BD5D3",
"i. c #50C3C4",
"p. c #4B989E",
"a. c #316572",
"s. c #4FE2DD",
"d. c #4B9FA5",
"f. c #1B5667",
"g. c #575797",
"h. c #2EA19D",
"j. c #515883",
"k. c #5AD0C9",
"l. c #192F43",
"z. c #4A949B",
"x. c #4EE6E2",
"c. c #4A9099",
"v. c #1C4058",
"b. c #4CB3B6",
"n. c #4CDEDC",
"m. c #455B97",
"M. c #6C6BAC",
"N. c #4DCFCE",
"B. c #2E5765",
"V. c #6E6EAE",
"C. c #4E4F91",
"Z. c #192F4B",
"A. c #2A8388",
"S. c #4CA4AA",
"D. c #2E989A",
"F. c #2A8E8F",
"G. c #4DDBD8",
"H. c #40CBC8",
"J. c #2E9D9B",
"K. c #30515F",
"L. c #4B99B8",
"P. c #164C61",
"I. c #62649A",
"U. c #50BEBD",
"Y. c #404956",
"T. c #3CA7AB",
"R. c #3B7682",
"E. c #52E1E2",
"W. c #366975",
"Q. c #76858A",
"!. c #5D5E96",
"~. c #53B2B3",
"^. c #3D4477",
"/. c #6B6CA1",
"(. c #3B5461",
"). c #31606E",
"_. c #2B4054",
"`. c #485474",
"'. c #2F4A5B",
"]. c #247B81",
"[. c #4CAFB2",
"{. c #345C6A",
"}. c #40447F",
"|. c #37707B",
" X c #38426C",
".X c #326C78",
"XX c #52B7B7",
"oX c #468D93",
"OX c #2A7D8C",
"+X c #3EB2B4",
"@X c #7590C3",
"#X c #6867A8",
"$X c #A1A1C9",
"%X c #9595A1",
"&X c #0C1D34",
"*X c #31425D",
"=X c #1F656E",
"-X c #3EC4BF",
";X c #44D1CD",
":X c #143A55",
">X c #3D8890",
",X c #34AEAA",
"<X c #31AAA5",
"1X c #295D6C",
"2X c #39B6B4",
"3X c #2A9394",
"4X c #4A9DA2",
"5X c #7491C3",
"6X c #7687BF",
"7X c #49669D",
"8X c #4AA8C2",
"9X c #5A6E74",
"0X c #6B7B7F",
"qX c #7779A8",
"wX c #5A618E",
"eX c #F3F3F6",
"rX c #484D79",
"tX c #328993",
"yX c #4EC7CB",
"uX c #4CCCCF",
"iX c #113B49",
"pX c #3E9198",
"aX c #4AB7C9",
"sX c #9999C1",
"dX c #8D8DB6",
"fX c #4B636A",
"gX c #A3A8A8",
"hX c #747E8A",
"jX c #617479",
"kX c #E1E2EA",
"lX c #B5B4B3",
"zX c #1F5A6B",
"xX c #3E7C88",
"cX c #65B4D0",
"vX c #1C284B",
"bX c #62BBD4",
"nX c #303862",
"mX c #C9C6C7",
"MX c #AAAFB0",
"NX c #4C5A7F",
"BX c #AAACC5",
"VX c #949E9E",
"CX c #BAB8D1",
"ZX c #B6B8D0",
"AX c #414F73",
"SX c #3C4D66",
"DX c #4C5778",
"FX c #4974A4",
"GX c #162143",
"HX c #7294C4",
"JX c #5D81B2",
"KX c #4D5184",
"LX c #819092",
"PX c #687687",
"IX c #C5C6D8",
"UX c #C0C2D6",
/* pixels */
"                                                        # ; + + 2 2 i <                                                         ",
"                                                      < 1 4 P.P.P.P.P.u =                                                       ",
"                                                & e e M :X3X=.=.=.=.J.P.B h e &                                                 ",
"                                                1 ; ; m F.h.H.n.n.H.h.3X.X; ; 6                                                 ",
"                                          9 3 3 D OXOX3X=.h.u.>.>.9.h.h.3XOXOXl w 3 w &                                         ",
"                                    * : < n v.r.+XG.G.T.A.J.H.9.9.H.h.A.J.9.G.tX8.v.A = : *                                     ",
"                                    # ; Z.4Xi.i.O.p.p.f.8.F.h.h.h.h.J.r.r.p.p.z.z.XXO., j :                                     ",
"                                > t O v ,XO.XXn.u.uXN.t.r 4 r.r.r.r.r.F.t.N.N.N.uX[.S.T.v n w                                   ",
"                              > < Z $ G.` O.O.G >.x.N.t.D.Z.P P P P ;.OX2XN.N.n.G O.d.s.s.A.l 6 f                               ",
"                              h 5 tXG G x.O.S.9.uX+Xy.r.@.7.( ( ( ( ( 4.v.xXxXb.G.S.d.s.G >.r 6.= *                             ",
"                            = O v ;X` G x.O.z.z.zX4.7.7.7.K K K K K K 7.7.Z.@.a.oXc.d.s.G ` -XA.s 3                             ",
"                            6 8.H.>.G G x.O.xX:X8.Z.( ( (  X^.^.^.^. X_.K ( 7.l.L .Xd.n.G ` ;XD.l.M k                           ",
"                        0 w l T.[.b.b.b.b.a.:X4., K _.hXDX}.%.F %.%.#.}.}.*XK , l.E f.G.G -X,XJ.].x 7 f                         ",
"                        & - zXu.d.c.z.c.|.8.4.( ( SXPXkX$Xq.F F F F F %.%.}.^._.K l.6.$ =.<XJ.h.=.=X8 #                         ",
"                        @ - v.d.XXO.z.oX8.Z.( _.AXqXkXeXeXZX~ F F F F F F F #. X*XK L T $ =.=.=.=.=Xi #                         ",
"                        @ - r.XXG.U.oX1XZ., _.AXV.g./.kXsX!.F F F F F F F F g.0.^._.7.l.8.=.9.9.H.=Xi #                         ",
"                        @ - f.k.` yXy.@.E K NXM.C.I ~ dXI.-.F F F F F F F #.dX,.-. XK ( &XR.O.N.s.y i #                         ",
"                      % 7 S t.s.` T.v.l.7.NXV.q.I.~ #.#.#.F F F F F F F F F e.e.I }  XK L 7.R.i.s.T.$ p =                       ",
"                      = 4.t.>.` >.r P 7.K I.o.I.CXg.#.F #.-.-.-.-.-.-.#.F F #.F F F }.K E T 1XyXs.U.3X4.w                       ",
"                    > = 4.+X3.s.x.D.l.( SX/.0.~ g.~ F -.7XL.L.L.L.L.L.FX-.F F F #.e.!.*X7.;.B.i.s.t.F.4.3 k >                   ",
"                  g 7 q | v.P.>XpX:XE K wX#XF #.#.F #.m.8X>.` ` ` ` >.aX7XF F #.e.q.<.wXK E E T.-XP.:X| q B #                   ",
"                % 1 j 4 f.f.4 1XB.;.E K wXo.-.F F F m.8XG G G G G G G ` i.7XF ~ q.H H I.K K L 1XA.f.f.f.f.zXu <                 ",
"                9 ;.].<X,X<X=.P.;.( ( './.q.} I %.C.aXx.G G G G G G G G G yXm.q.<.H H '  .K 6.T iXJ.,X,X<XD.8.1                 ",
"                9 4.F.;X3.n.+X4 ;.K (  .' 0./.C.m.aXn.G G G G G G G G G G 3.uX6X_ H H w.j.K 6.T iX=.G.x.H.D.8.1                 ",
"                9 4.F.u.>.G 2X4 ;.( (  .' 0.BX!.m.9.` G G G G G G G G G G G 3.@X_ H H w.j.K 6.T iX=.s.>.;XD.8.1                 ",
"                9 4.F.t.H.H.<Xr.;.K (  .' ~ e.%.m.9.` G G G G G G G G G G G E.@X_ H H w.j.K 6.T iX=.-X-X2XD.8.1                 ",
"                : u y ].].].f.zX=X_.(  .' ~ #.I m.9.` G G G G G G G G G G G E.@X_ H H w.j.K L r.$ $ $ $ $ $ p t                 ",
"                  f - b @.8.4.].F._.(  .' ~ F I m.9.` G G G G G G G G G G G E.@X_ H H w.j.K L >X[.v.8.@.b 5 #                   ",
"                  > # N '.A.A.F.].7.7. .' ~ F I m.9.` G G G G G G G G G G G 3.@X_ H H w.j.K L y U.p.y.v.5 # >                   ",
"                    @ O *X:.....'.P E `.' ~ F I C.L.9.` G G G G G G G G G E.bX6X_ <.' V.j.K 6.7.K.'.'.K N g                     ",
"                    & O K.pXoXoXR.P E `.' ~ F I I ~ L.u.` G G G G G G G E.bX,.H H o.~ o.j.K 6.K.R.>X4X).X o                     ",
"                    & O a.x.9.n.t.@.E `.' ~ F I I %.~ 8XG G G G G G G E.cX,.H H o.dXqXq.j.K L ).p.~.k.|.X o                     ",
"                    & O 1X2X+Xb.pX@.E `.' ~ F %.0.~ %.7X8X3.E.E.E.E.E.cX,.H <.o.~ qX/.q.j.K L |.~.5.5.W.X o                     ",
"                    & O B.D.=.u.+X@.E  .' ~ I g.UX/.I I 0.JXHX5X5X5X5X6X_ _ V.e.#.#.I o.*.K L y.k.5.z.{.X o                     ",
"                    & O B.J.r O.>X;.E  .' %.I.ZXeXIX/.-.e.#XH _ _ _ _ _ H ' e.F F F I o.*.K 6.W.O.5.XXW.X o                     ",
"                    & O a.u.;X4XR.P E  .' %.!.$XeXZXI.C.M.H H H H H H <.o.g.F F F F I o.*.K L ).z.~.k.|.X o                     ",
"                    & O ).i.i.O.y.;.E  .' ~ I C.BXI.~ V.H H H H H H <.#Xe.#.F F F C.e.o.*.K 6..XO.5.XXW.X o                     ",
"                    @ O K.c.4XG.2X@.E  .' ~ F %.~ e.V.<.H H H H H ' o.~ F F F F #.sXqXq.*.K L y.k.5.z.{.X o                     ",
"                    @ O K.c.d.3.t.@.E  .' ~ F #.C.V.<.H _ H H H <.g.-.#.F F F F F !.g.q.*.K 6.y.k.5.c.{.X o                     ",
"                    @ O K.c.d.s.t.@.E  .' ~ I 0.M._ H _ $X$XH <.g.~ #.F F F F F F #.#.o.*.K L y.k.5.c.{.X o                     ",
"                    @ O K.c.4Xs.t.@.E  .' %.0.V.H H H _ $XsXM.q.~ #.F F F F F F F F F o.*.K 6.y.k.5.c.{.X o                     ",
"                    @ O B.d.S.b.pX@.E  .' g.M.H H H H H w.M.0.#.F F F F F F F F F F F o.*.K L |.~.XXU..XX o                     ",
"                    @ O a.9.N.p.R.;.E  .w.w.H H H H H H M.%.F F F F F F F F F F F F F o.*.K L ).p.U.` y X o                     ",
"                    @ O B.S.O.i.r @.E  ._ _ H H H H <.q.0.F F F F F F F F F F F F F F o.*.K L A.u.U.[.a.X o                     ",
"                    @ O B.O.[.N.T.@.E  ._ _ H H H w.#Xe.#.F F F F F F F F F F F F F F o.*.K L tXx.U.p.).X o                     ",
"                    @ O a.s.n.d.R.;.E  ._ <.<.<.w.#X} } } } } } } } } } } } } } } } } q.*.K L a.S.~.i..XX o                     ",
"                    @ O B.[.b.O.>X@.E  .V.0.0.C.nXvXGX+.+.+.+.+.+.+.+.+.+.+.+.+.+.+.+.KX*.K L W.S.5.U.W.X o                     ",
"                    @ O K.oXp.u.+X@.E `.M.%.} Z.&XT T T T T T T T T T T T T T T T T T rX*.K L y.k.5.z.{.X o                     ",
"                    0 p {.b.b.S.y.@.E `.M.}.vXJ J J J J J J J J J J J J J J J ;.&XJ T rX*.K L |.5.5.~.W.X o                     ",
"                    @ p a.s.n.d.R.P E `.!.+.J J J J J J J J J J J J J J J J J Q.Y.T T rX*.K L ).p.~.k.|.X o                     ",
"                    k O B.O.[.yXT.@.E DX!.J J J J J J J J J J J J J J J J J J E ;.J T rXwXK L tXn.U.S.a.X e                     ",
"                  % d ; v.a..XD.A.@.4.*X^.[ [ [ [ [ [ [ [ [ [ [ [ [ [ [ [ [ [ [ [ [ [ nX XZ.;.=Xr OX).v.j a <                   ",
"              > @ a P | | | | | | | | P P P P P P P P P P P P P P P P P P P P P P P P P | | | | | | | | | P 7 e 0               ",
"              < - C (.(.(.(.2.2.2.2.2.hX%XX.X.X.X.X.X.X.X.X.X.X.X.X.X.X.X.X.X.X.%X%X%X%XhX2.2.2.2.2.2.2.(.(.V ; t               ",
"              = P '.^ ^ ^ ^ ^ ^ ^ $.$.gX] ] ] ] ] ] ] ] ] ] ] ] ] ] ] ] ] ] ] ] ] ] ] mXgX^ $.$.^ ^ ^ ^ ^ ^ 2.| d               ",
"          > 0 t b '.^ ^ ^ ^ ^ ^ 9XQ.Q.MX) ) ) ) ) ) ) ) ) ) ) ) ) ) ) ) ) ) ) ) ) ) ) ) MXQ.Q.jX^ ^ ^ ^ ^ ^ 2.;.d * *           ",
"          = - X :.&.1.1.1.1.1.1.0XU R R R R R R R R R R R R R R R R R R R R R R R R R R R R U Q.1.1.1.1.1.1.fX..x 5 6           ",
"          6 | , :.:.:.:.:.:.:.{ 9XY Q Q Q Q Q Q Q Q Q Q Q Q Q Q Q Q Q Q Q Q Q Q Q Q Q Q Q Q Q 0X{ :.:.:.:.:.:.:.K.;.3           ",
"    * % # a 4.K ..............:.9XlXW W W W W W W W W W W W W W W W W W W W W W W W W W W W W 0X:...............{ Z.u : % *     ",
"    % q s z fX1.$.$.$.$.$.$.jXLXVXR ! ! ! ! ! ! ! ! ! ! ! ! ! ! ! ! ! ! ! ! ! ! ! ! ! ! ! ! ! VXQ.9X$.$.$.$.$.$.$.1.z s q %     ",
"    % 2 l.&.&.&.&.&.&.&.&...0XU U U W U U U U U U U U U U U U U U U U U U U U U U U U U U U U U Y ^ &.&.&.&.&.&.&.&.&., 2 %     ",
"  > % 2 6.{ { { { { { { { { jXY lXY Y Y Y Y Y Y Y Y Y Y Y Y Y Y Y Y Y Y Y Y Y Y Y Y Y Y Y Y Y lXgXfX{ { { { { { { { { E 2 : * > ",
"h 7 5 &X&XL L L L L L L L L E / / / / / / / / / / / / / / / / / / / / / / / / / / Y.Y.Y.Y.Y.Y.Y./ l.L 6.6.6.6.6.6.6.6.&X&Xq - : ",
"h - c . . + + + + + + + + + + + + + + + . . . . . . . . . . . . . . . . . . . . . . . . . + + + + . . . . . . . . . . . . c ; : "
};
