/* XPM */
static char *_9e7a577af8a41f984f26023bd1bf8ffbOk5z5onuF5uxXYE[] = {
/* columns rows colors chars-per-pixel */
"64 64 256 2 ",
"   c #47704C",
".  c black",
"X  c black",
"o  c black",
"O  c #06325A",
"+  c #141C33",
"@  c black",
"#  c #063664",
"$  c #3C406A",
"%  c #332C50",
"&  c black",
"*  c #000102",
"=  c #02060B",
"-  c #073861",
";  c black",
":  c #0D3861",
">  c #0D3861",
",  c #0000C4",
"<  c None",
"1  c #052398",
"2  c #063762",
"3  c #063762",
"4  c #073762",
"5  c #DD0202",
"6  c #676767",
"7  c #646464",
"8  c #0003BE",
"9  c #173756",
"0  c #2B3948",
"q  c #063467",
"w  c #073762",
"e  c #051E38",
"r  c black",
"t  c #000205",
"y  c #F8CA5A",
"u  c #0005BE",
"i  c #063070",
"p  c #06326D",
"a  c #0D375E",
"s  c #980000",
"d  c #F6C151",
"f  c #000204",
"g  c #0000C2",
"h  c #EB9E37",
"j  c #00058B",
"k  c #1B2026",
"l  c #0A0407",
"z  c #E89137",
"x  c #F4C846",
"c  c #5D4F24",
"v  c #0000C1",
"b  c #010AB5",
"n  c #063665",
"m  c #0C3B63",
"M  c #073761",
"N  c gray28",
"B  c black",
"V  c #042099",
"C  c #0000C3",
"Z  c #0000C3",
"A  c #0000C6",
"S  c #990000",
"D  c #0214C3",
"F  c #0C0E17",
"G  c #0001C5",
"H  c #042384",
"J  c #625342",
"K  c #FED559",
"L  c #04203B",
"P  c #A30000",
"I  c #FED55F",
"U  c #EC9539",
"Y  c #8C5948",
"T  c #063764",
"R  c #FFDA67",
"E  c #0000CC",
"W  c #042576",
"Q  c #0000C4",
"!  c #676767",
"~  c gray38",
"^  c #03197F",
"/  c #343434",
"(  c #9A0000",
")  c #E89C36",
"_  c #795F42",
"`  c #E1B551",
"'  c #D68C3C",
"]  c #F7CB48",
"[  c black",
"{  c #F5B952",
"}  c #F1C130",
"|  c #430000",
" . c #063078",
".. c #052790",
"X. c #CDC8C8",
"o. c gray68",
"O. c #A53535",
"+. c #686868",
"@. c #5D5F5F",
"#. c gray39",
"$. c #C97F31",
"%. c #C6812F",
"&. c #AB8B2B",
"*. c blue",
"=. c black",
"-. c white",
";. c #0000C4",
":. c #0000C1",
">. c #0000FE",
",. c #063760",
"<. c #0000FB",
"1. c #0000F0",
"2. c #242525",
"3. c #0000D3",
"4. c #0000E2",
"5. c #0000CC",
"6. c red",
"7. c #0001E9",
"8. c #0001DA",
"9. c #9A0202",
"0. c #062D74",
"q. c #063567",
"w. c #5F5E5E",
"e. c #0003BC",
"r. c #04287C",
"t. c #031CAB",
"y. c #0219B6",
"u. c #FED865",
"i. c #CCCDCD",
"p. c #010DA8",
"a. c #FF0B0B",
"s. c #FEFEFE",
"d. c #141415",
"f. c #FFDC65",
"g. c #090908",
"h. c #38320E",
"j. c #0001F7",
"k. c #F9D059",
"l. c #ECBA2E",
"z. c #042286",
"x. c #EBECEC",
"c. c gray81",
"v. c #0001C8",
"b. c #050BB3",
"n. c #929496",
"m. c #606566",
"M. c #00007B",
"N. c #072D84",
"B. c #01101C",
"V. c #2F2E2D",
"C. c #686868",
"Z. c #3D3E3F",
"A. c #8C8B8B",
"S. c #505254",
"D. c #A2A2A2",
"F. c #040DD5",
"G. c #C0C3C3",
"H. c #DA9D9D",
"J. c gray49",
"K. c #D2D4D3",
"L. c #010FC8",
"P. c #031A91",
"I. c #031829",
"U. c #F4F4F4",
"Y. c #ECA23E",
"T. c #818181",
"R. c #CAC9C8",
"E. c #560000",
"W. c gray86",
"Q. c #DDB470",
"!. c #373737",
"~. c #F4C432",
"^. c #FAFAFB",
"/. c #6F504D",
"(. c #C3A147",
"). c #E4E4E4",
"_. c #BBBCBC",
"`. c #E79136",
"'. c #8F8FFF",
"]. c #9E807B",
"[. c #000329",
"{. c #CA8181",
"}. c #042B4F",
"|. c #FFD0D0",
" X c #917CA5",
".X c #C78135",
"XX c #ECAE45",
"oX c #6D0101",
"OX c #997026",
"+X c #A9A9A9",
"@X c #B20303",
"#X c #F5BE57",
"$X c #B4B4B3",
"%X c #BA9F94",
"&X c #C29191",
"*X c #FF4747",
"=X c #EB9538",
"-X c #50490A",
";X c #6363DA",
":X c #5151D6",
">X c #9B9BE8",
",X c #05288D",
"<X c #735E89",
"1X c #F9C932",
"2X c #174062",
"3X c #4E58A3",
"4X c #EF3D3D",
"5X c #2933B5",
"6X c #706F71",
"7X c #8A6D5F",
"8X c #EF0202",
"9X c #852828",
"0X c #2D0000",
"qX c #3B3BE8",
"wX c #0100FF",
"eX c #010A5F",
"rX c #031D59",
"tX c #C9C6C6",
"yX c #63407A",
"uX c #5ECC5E",
"iX c #A23736",
"pX c #D3B7B7",
"aX c #C4C4F1",
"sX c #7373DE",
"dX c #2222E2",
"fX c #D66161",
"gX c #FBECC0",
"hX c #0E0CF7",
"jX c #8B96C0",
"kX c #7261B7",
"lX c #707A83",
"zX c #ACE5AB",
"xX c #549254",
"cX c #6B829E",
"vX c #473FC8",
"bX c #546A89",
"nX c #878685",
"mX c #A19633",
"MX c #DCAAAA",
"NX c #362EE0",
"BX c #01AE00",
"VX c #D0A417",
"CX c #BF2121",
"ZX c #AD4B49",
"AX c #FDFF00",
"SX c #A58D9D",
"DX c #ECBCBC",
"FX c #4F1717",
"GX c #895A75",
"HX c #75601B",
"JX c #2727DE",
"KX c #B4D6B4",
"LX c #007100",
"PX c #6D0E0E",
"IX c #EDEF00",
"UX c #EFEF40",
/* pixels */
"                                        Q C :.:.:.:.:.:.:.:.:.:.:.:.u       G :.z.2 w                                           ",
"                                $ b b A u E 5.5.5.5.5.5.5.5.5.5.5.E G A b : G 5.z.2 w                                           ",
"                                g Z v v , <.<.<.<.<.<.<.<.<.<.<.<.<.F.v ^ 4 D >.1 2 w                                           ",
"                        $ g g g u E 5.5.8.>.*.*.*.*.*.*.*.*.*.*.*.wX3.b.P.N.5XNXN.2 w                                           ",
"                        b Z , v , j.<.<.>.*.*.*.*.*.*.*.*.*.*.*.*.*.t.,.y.<. Xk.m.2 w                                           ",
"                    $ g u , ;.5.8.>.*.*.<.1.1.1.1.1.1.1.j.*.*.*.j.1.y.N.5XNX%Xf.m.r.n # 8 8 8 8 8 8 8 8 # #                     ",
"                    A Z C ;.5.<.*.*.*.*.1.v.;.;.;.;.;.:.4.*.*.*.4.:.4.<. Xu.u.f.3Xe.H 3 p., , , , , , , 3 3                     ",
"                  w q < p.p.b.F.F.F.F.F.L.p.b.3.3.3.3.3.7.*.*.*.7.3.4.1.kX%X%X%X5X:.< ,X< p.v.3.3.3.3.v.0.,.                    ",
"                  2 ,.q.q.q.q.q.q.q.q.,.,.,.1 >.>.>.>.>.>.*.*.*.*.*.8.:.4.>.>.<.3.:.7.j.,Xq.F.*.>.>.*.1.0.,.                    ",
"                  > > > > > > > a 2 0.1 1 1 y.>.*.*.*.*.*.*.*.*.j.7.4.3.4.7.7.7.8.3.4.7.t.1 8.1.<.<.F.D  .>                     ",
"                  % % % % %     # 3 ,Xj.>.>.>.*.*.*.*.*.*.*.*.*.4.:.4.*.8.:.:.:.7.*.3.:.1.<.5.;.j.j.N.- O                       ",
"                            + q i 1 y.<.*.*.*.*.*.*.*.*.*.*.*.*.7.8.4.7.qX;X;X;XdX7.8.8.j.>.4.8.L.D W i +                       ",
"                            9 M N.j.*.*.*.*.*.*.*.*.*.*.*.*.*.*.*.*.8.:.>X-.-.s.:X:.1.*.*.*.*.j.N.- :   %                       ",
"                        + q i H t.<.*.*.*.*.*.*.*.*.*.*.*.*.*.*.*.*.qXsXaX-.-.s.:X:.1.*.*.*.*.j.N.- :                           ",
"                        : - 0.e.3.>.*.*.*.*.*.*.*.*.*.*.*.*.*.*.*.*.'.-.-.-.-.s.:X:.1.*.*.*.*.j.N.- :                           ",
"                        : - 0.e.v.4.7.>.*.*.7.y.y.y.L.4.1.*.*.*.*.*.'.-.-.-.-.-.>XsXdX4.j.>.7.8.r.- :                           ",
"                        : - 0.e.:.:.3.*.*.*.L.,.,.,.z.:.8.*.*.*.*.*.'.-.-.-.-.-.-.-.:X:.1.>.3.e.0.- :                           ",
"                    + n > 1 < :.:.:.e.t.t.t.t.P.< y.L.4.1.*.*.*.*.*.'.-.-.-.-.-.zXuX5X;.1.>.3.e.0.- :                           ",
"                    O - 0.e.;.:.:.;.p.,.,.,.r.:.8.*.*.*.*.*.*.*.*.*.'.-.-.-.-.s.uXBXN.v.1.>.3.e.0.- :                           ",
"                    O 4 0.e.:.;.b.z.r.,.0.< b.4.1.*.*.*.*.*.*.*.*.*.qX;XaX-.-.s.xXh.cX>XJX8.< H i q 0                           ",
"                    O 4 0.e.:.;.p.q.,.,.r.:.8.*.*.*.*.*.*.*.*.wXwXwX8.:.>X-.-.s.S.=.$X-.vXe.0.M 9                               ",
"                    O 4 0.e.b.z.p q i < p.:.v.8.7.*.*.*.*.<.vX].].SX].].Q.u.gX-.xXLXKX^.3Xz.q.M 9                               ",
"                    O 4 0.e.b.q.a $ Q C ;.:.:.:.8.>.>.>.>.*.<X1Xk.f.k.~.~.~.gXs.uXBXzX^.bX,.,.M #   %                           ",
"                    O 4 q.r.p q q > V :.:.:.:.:.v.3.b.,Xy.8.<X~.XXY.#Xk.k.k.#XQ.(.mXQ.Q.(.mXV.B.l B O                           ",
"                    O 4 ,.2 a $ # 3 r.:.:.:.:.:.e.e.P.,.z.e.<Xl.Y.`.#Xf.u.u.XX`.`.=X`.`.l.l.h.& & X .                           ",
"                    O 4 4 w 9   # 3 r.:.:.;.p.r.rX[.[.B.[.[.d.h.OXl.y f.f.f.k.y y y l.l.Y.) J @ @ @ 0                           ",
"                    O 4 p 0     # 3 r.:.:.:.< ,.e ; ; ; & =.=.=.HXl.x k.k.k.k.u.u.u.x } ) z h                                   ",
"                    O - p +     # 3 r.:.p.r.rXB.f o o o k }.}.}.2.h.h.V.h.h.OXY.Y.Y.` h h h d                                   ",
"                    O p a +     # 3 r.:.p.,.e ; *       m 2X2X2Xe =.g.g.g.g.Y z z z h                                           ",
"                    $ : O %     # 3 r.;.j g.F o O       ` Q.(..XyXp.w.VX.X.X$.U U U d                                           ",
"                                # 3 r.b.j X *       d d I u.XX.XyX5.7X1XXX=X%.+ $                                               ",
"                                # 3 }.[.F . +       K R { Y.GXb.F.<. Xf.x l.c [ t                                               ",
"                                9 p L =.f %     d ] I u.XX.XyXe.8.*. Xf.k.~.-X=.t                                               ",
"                                $ + t =.f $     K R y 1XOXg.e q.y.*. Xf.u.u.c =.t                                               ",
"                                    @ & f $ d ] I f.k.l.OXg.I.}.t.*.kXQ.y u.c =.= . : +.$                                       ",
"                                    @ =.f   K } x f.#X=X7X,.e =.j *.hXhX].1X-X=.; X N 7 6                                       ",
"                                    o l B o &.~.x y { z _ a L =.M.j.<.*.<X(.h.=.=.=.w.nXJ o 0                                   ",
"                                    % $ t ; c f.#X=X' $ $ $ = =.eXv.7.*.1 2XI.=.=.=.$XU.N X o                                   ",
"                                    + @ = =.h.(.(.`.' # # # * =.M.3.4.1.1 ,.I.=.2.!._.x.Z.; o                                   ",
"                                    @ ; & =.=.=.h.=X7X2 2 2 e =.M.*.4.;.z.,.B.=.nXi.i.tXV.; o                                   ",
"                                + @ = 2.V.S.S.S./.OX_ T T T L B.j *.5.p.P.r.e B.lX$Xc.W.C.Z.J ! 0                               ",
"                                o ; d.w.A.^.s.-.D.=.* % %   n ,.y.*.t.,.< ;.z.,.S.C.K.-.K.G.J.7 6                               ",
"                            0 ! ~ N w.n.$Xx.).i.T.=.*   . r W 1 L.7.V > ^ M.P.z.bXA.W.-.).W.T.7 6                               ",
"                            6 7 J.tXW.s.U.c.+XC.Z.=.*   = =.M.*.4.;.u   * =.M.;.jXK.U.-.-.^.A.7 6                               ",
"                            6 7 T.W.x.-.U.).i.+XC.=.*   = I.j *.L.< u   * =.M.;.3Xn.n.n.).^.A.7 6                               ",
"                            6 7 A.^.-.-.-.-.-.-.D.=.*   m ,.t.*.t.,.m   * =.M.;.z.,.B.=._.s.A.7 6                               ",
"                            9 / m.U.-.-.-.-.-.-.D.=.l m ..t.t.y.V i = = l =.eXP.rXe g.g.+X).w./ 9                               ",
"                            o ; !.U.-.-.-.-.-.-.D.=.I.,.t.*.y.,.n   * =.=.=.e ,.B.=.=.g.n.R.V.; o                               ",
"                            o ; 2.+X_.).x.-.U.x.n.=.Z.jX3XM.eXI.a ~ F =.Z.C.lXcX6XC.2.=.N #.k = +                               ",
"                            o ; d.w.T.R.W.-.U.c.T.=.C.-.A.=.=.=.!.C.V.=.J.K.c.c.c.c.Z.=.=.; o                                   ",
"                            + r k V.!.S.w.6XC.w.S.!.A.-.c.n.n.n.w.V.d.=.S.n.$Xi.J.S.k = = = +                                   ",
"                            % % o ; =.=.=.=.=.=.2.m.D.-.-.-.-.-.J.=.=.=.Z.C.+Xi.Z.& @                                           ",
"                                + r r r * & 0XE.PX9XY D.D.D.T.w.> r f =.FX9XiXZX7XT.o.X.O.s s s S                               ",
"                                        t & 0X9.9.9.9Xm.m.C.V.=.=   * =.E.9.9.9.&XK.i.tXiX9.9.( S   % %                         ",
"                                    . B l oX9X{.&XMXpXi.i.c.C.=.[ B | oX@X5 fX&XpXi.fX4X5 5 5 5 P s s s +                       ",
"                                    @ & 0X9.ZXi.).s.s.s.s.-.nX=.=.=.E.9.5 6.{.K.i.R.4X6.6.6.6.6.@X9.9.( S %                     ",
"                                    @ & h.l.l.i.H.*X*X*X*X*XCXoX0X=.E.9.@X@X{.c.i.R.4X6.6.6.6.6.8X5 5 5 P P                     ",
"                                    @ & -XAXUXR.{.6.6.6.6.6.5 9.E.=.E.9.9.9.{.i.R.tX4X6.a.a.a.a.a.a.a.8X9.9.                    ",
"                                    @ & -XAXl.iXCX6.6.6.6.6.8X8XoX=.V./././.6XJ.J.T.&XH.H.H.H.H.H.H.H.&XY /.                    ",
"                                    @ & -XIXVX9.@Xa.a.a.a.a.a.a.oX=.!.m.w.w.w.w.w.w.D.G.G.G.G.G.G.G.G._.6Xw.                    ",
"                                    @ & g.h.c %XpX|.|.|.|.|.DXMX/.=.g.d.d.d.d.d.d.d.2.2.2.2.2.2.2.2.2.2.d.d.                    ",
"                                    @ X ; =.Z._.i.x.x.x.x.x.K._.@.X X X X X X X X X X X X X X X X X X X X X                     ",
"                                    0 . r & g.2.2.2.2.2.2.2.2.2.k . . . . . . . . . . . . . . . . . . . . .                     ",
"                                        t & =.=.=.=.=.=.=.=.=.=.=                                                               "
};
