/* XPM */
static char *c1cf6a6fb87347fdc48450077a522771RmTHEaCjV1f5dlEQ[] = {
/* columns rows colors chars-per-pixel */
"64 64 21 1 ",
"  c #A39A91",
". c #524840",
"X c #564D45",
"o c #A0978E",
"O c #4D433B",
"+ c #5C524A",
"@ c #625952",
"# c #9C948B",
"$ c #988F86",
"% c #6E655E",
"& c #685F58",
"* c #A89E95",
"= c #857C74",
"- c #8A8179",
"; c #756B63",
": c #8F867D",
"> c #938A82",
", c #787068",
"< c #7D746C",
"1 c #817870",
"2 c #B2A79E",
/* pixels */
"*  **o,.>****-$&$ ooo :X%-:--=<&%.:$2**#&.%*2:o$#   oo;+$22 #;X$",
"#  o >&X>    =>@<#oo o=.%,,,,;%X@X-:   $+X1##->:-o  o ;.%:   #%:",
">-oo$-&X$o#o ,,@-#   >,O%,;;,;@@&X<,$#$=XX,1:#  -=$o#>&@:-$  o%&",
" $1$<;@.-#ooo;,@-#$o$<%O&,;;;@+%%X%&>$<;.X%,=:>:-<;$>;X; ><# #%-",
"$$,,%&.O@,1::@&X&<,,<%@O+&;%+X++X.@+&;%@XX+%;<<,,;@%%%X&-@.&:>%-",
"@@&&@XOO.XX++.+O...X@+..O.X.OOO..O.OOX+.XX..++..XXOOOOO.XOOO.+X+",
"%&+X.@=:-1%+.OOO.O..XXX++.OO.&;&%,;,;@O@<<<,+X&<@.OO.&,,===@.%,;",
"  #<.<2***o#,OX=:,::-1;1-&O.&#o1$    $&;*  o=,*2,&+.%o * =;+&#* ",
"   >+;*   oo=.& *=-#$$##$:+.<  1:o  o#,;   oo$o <;%+=* *#%OO=*o ",
"*o##&@>>$   1X=  =%=>->::>&.1  =>oo #>&%oo     #<%;+122**#%O=*#o",
"$  o&<o#-> :%X<$>1:ooo=: *=O&>>$ ooo$1+@$oo  * :%@;@%o222o<X@>o>",
"=#o:+=   -:-,X&,1#* #><-##,O+=$###oo:;X@=>$#o *>;&%+@:  o$,+@%:o",
",1<%O,>#oo *=.%,:###$;+%;;&OX%<111-$<&..%;;;=::<;;%X+=$:,,%X&@@1",
"...X.X%&;1==&O@&%;;%&@.X+XX..X@@@@@@+XOO.XX.@;%XX.X..X++++XOX+X.",
"X++++XXO.XXXX+++++X...+@,===1<@.;%+%1=1,+X;,;;;,,&..+,-=1%;==%OX",
"$*##$--&.&%<$##=-;1@.@$*22222*;O<$=-**o#%@>oo    #@.>*2o$>#**$X;",
" # oo #;+<1=:**-:;-;@=  ##oo o%O&$>1$o$-@+,>o    #@O;*2    oo$+%",
"    oo$@%#o*::-;:@%-,;$$1->oo$&O@=>>::o ;X+%<>***-+OO$2$$o  o>@%",
"     o$@<oo #>$,<&- 1@,=>o  o<OO@;=##:*o-XOX+@<1<;+OO>* #:$##-X%",
"# o #$=+&$oooo #,1 #,+:    #:%OO+%,$$< #:+X@+.X@%%+O.> oo$:>>>X&",
"&1=-,;%XX:o$>$$$:-#$%X1-=:-<;&.OX%;$>&=<%X+&&XX.+&XO.1-==1:#$,.%",
".....XX..%,@+++++@&&X.@&&%&&&XOOO+@;;X@&X.X+X..OOO...%%&@++;,+.+",
"X.@,+O@<<1=<;;@XOO...XXXXXXO.O%>:-:#><+X&111&&:--1,%+.X....OO.@@",
"#=# :.<2222 1$#$<+OO+=1->$-&.O=2222* -+X-*22:<****  %O+%;%+.O;* ",
"***o>., o  o1- * :+X- :$***$%O,** o o$@= oo* -:o   o&.&=-<%+.;o#",
"*  o=.<  ***>1o* #&&# =$oo  >X%      :+=  o  : o   #@X%,,;;&X,  ",
"   #%.1o  ***=<#*#&; o-$##oo$@;     o1.->>#o :$oooo$+@;;;;&@+,  ",
"=oo:&X,>oooo*==o*o&%oo>-o###<+%  o   1.# ->oo=:ooo#-O+;;;&@++, o",
"=1<%@O%<:#>-:,,=<,+@$$<,$>>#=+@$####=+.=-<,<1&=>:::<.@;%@+X..%$>",
"@XOX.OX@@%%%%XX@@@O.@@X+@@&;&..&;%%%+OO&&&&&+.X@@@+XO++XOOO...@&",
"XOOO.XXXXX+++XXX.+XX..O.OOXXXX+XOOX+.O.....OO.+@X.;=<&.@;%X.X@@+",
":%.X@@;,;:o*#>:X%$:=<:%.X1$oo$:=XO;$1@<11=<XO@$#:;#*2<&#*o=@-2 o",
" >X@<=:-,=$   $+= >,;,%X;o * o>=&X$*-=*o222-O&o  o** ;<**##$$## ",
"*>.@,$2* #->o $X;:=<:<%+$* >-:$-+.-$<:*o oo>.&>*22*  ;; *#-$$o  ",
" =O+;1**  #>o $.%$$-$*$@1:::# *$XOO.+1 oo$#-O;      o%;--o#*#-o ",
"$1O+;1$    oo $.+- #:-;+%=>  o-,..OX:1#o-%-<O;o#o#oo$@%>;=o o:-o",
"1&O;#o  oo###>=..%:#$,@O%<->:-%&.X.+-&%,%.@%O@1-:--=;X@1-%<$$-;;",
"@O.@,<1<<<<%@+X...X%%&XO.X+@;%@X.XXX+OO.XO.XOO..XXXX...+@+.@@+X.",
",@+XXX.O.X++OOX++XXX.O@::-1=1;XX+++X.XXX..@@+&@%;@XO%>>$$:,X.X,1",
"222 <+@,,1#o%&$  * #,O<2222*>1+=$# #>$#>@&:=<o#o #=.>2*22*o;X-22",
"2222$%,#o::::$*    *-O;*  *2><&#o#$:$oo:X1o=<$# **>X>*#o* $&+o22",
"***o%+%$  oo*o   oo#=O%o o#  -&1:--<=:-1.= o-:>#  1.1$$#**=X%*2*",
"*  =XX1o  oo > o#oo#;O,$ooo#o=@-o#>:$o#>X%::#   *#&O%#*   <X+;:*",
"oo>&.X=  o##>-oo##:1@O;:o#o##1X<#o #> o>+&:$  o# :@.;>:<==%X.XX=",
"<-<XX.%> o$<;<:>$:;&XO&1:$$$><X&=#o$;=:1X@=:$>:1=;XO%,@OX&&X.X.X",
"++X.OO+%==1@+@&%&@+.OO.&%&&@@+O.&->=.X++O.+@;,%&@+..++.OO..O....",
"@@@@@.O.++X.....OOO@,;,,X+++X+.O.@%+.X..OO.XO.XXXX++O.1----=&1&X",
"**22*-X.-$$-->>=%.O%:-::@-$$:>-.OX+@-$>-@@==..-#o#><O,22222 =2-%",
" #o  o:X,-:1-:--=@O,11=<X-$##-1..,>$>:-<+%-1..1:$#-%O=2*   o:*&;",
"o$>>oo=X&,<%@;=>=XO,<,<;X:##o>%O.,----=;X+%&..,11=%.O1*   #o>*@;",
" oo::>;&-##>@,$ $+.%,<@+X:#oo-+OX<-:>>:=+@=%O@:$##;.O+->###o$#@%",
" ooo#$,&=-=1@1--=X.&1-,X.<$#>==&&->>>>>=+&=%O%:$$$><.&#$>>:-->@&",
">#$$$=@@<1<%X&<<,..,111%.&1>=:-@@1111,&@..@XO@,==--=.%o#>##-&%+@",
"X@@++X.X&&&+.X@&@O.;<11%.&&%<1;X.+&&@@@XOOOOOOX@&&&&.X;,&%<<&..O",
"OOOO..+XX..XXXOO.XX+@&@XO....X...XX.OOOO.X%<,,&XXXX.O+,<<1--<%X.",
"%@X.X=###%%$*$XO,>1+..%;;;,%.O.&:::%@+.@1--#oo#$$$$-.; **2***$@+",
"1&+.&o *#;= *>..=$#$@.> #:$:@.1:->>-:-X<$o$#$$oo o o&;*o# o *$@&",
";@+X,   o$o* >XO;===@O<-1<=1XO=:$o o#:X,-  :$ o#o   ;%       $@%",
"%+XX:** *##  $.X;11<@.,1<,<,XO,->#ooo<O%1-$>1>##oooo;&o   oo :+;",
"+XOX=#o      $.+,<1<+.;,,,;%.O,1=:oo:&O+;<>$>;=#oo#$&%#$###oo;O&",
"OOXX%=-$$:>--1..%;;;XO@%%%%%.O;<<1-=,XOOX&==,%@,1=1,X%$=-$oo#@OO",
"OO.X.++@@@++XX.O.XX.....X...OOX++&&&+.XXX.&&XX..X++X.+;%@%1=1X.O",
"++X%<;&.+@+@%@&X@;,,;&...+@&;;%@@XX<;:$$;OOX@,<1:>>:=%X.OX+X...&",
"#>: **=+=1;, --@=o * #&.@=$$$:=<<..$-* *,O@$ o***** o#&O&$>@OO+$"
};
